<mxfile host="app.diagrams.net" agent="Mozilla/5.0 (Windows NT 10.0; Win64; x64) AppleWebKit/537.36 (KHTML, like Gecko) Chrome/137.0.0.0 Safari/537.36" version="27.1.5">
  <diagram name="Page-1" id="OqMR_ClhQKAl3pP53u59">
    <mxGraphModel dx="2276" dy="751" grid="1" gridSize="10" guides="1" tooltips="1" connect="1" arrows="1" fold="1" page="1" pageScale="1" pageWidth="850" pageHeight="1100" background="none" math="0" shadow="0">
      <root>
        <mxCell id="0" />
        <mxCell id="1" parent="0" />
        <mxCell id="jX6GbzvN4i0k_gHsJKvV-30" value="Region" style="sketch=0;outlineConnect=0;gradientColor=none;html=1;whiteSpace=wrap;fontSize=12;fontStyle=0;shape=mxgraph.aws4.group;grIcon=mxgraph.aws4.group_region;strokeColor=#879196;fillColor=none;verticalAlign=top;align=left;spacingLeft=30;fontColor=#879196;dashed=1;" parent="1" vertex="1">
          <mxGeometry x="-140" y="170" width="1120" height="440" as="geometry" />
        </mxCell>
        <mxCell id="jX6GbzvN4i0k_gHsJKvV-17" value="Subnet" style="sketch=0;outlineConnect=0;gradientColor=none;html=1;whiteSpace=wrap;fontSize=12;fontStyle=0;shape=mxgraph.aws4.group;grIcon=mxgraph.aws4.group_subnet;strokeColor=#879196;fillColor=none;verticalAlign=top;align=left;spacingLeft=30;fontColor=#879196;dashed=0;" parent="1" vertex="1">
          <mxGeometry x="450" y="280" width="200" height="180" as="geometry" />
        </mxCell>
        <mxCell id="jX6GbzvN4i0k_gHsJKvV-3" value="VPC" style="sketch=0;outlineConnect=0;gradientColor=none;html=1;whiteSpace=wrap;fontSize=12;fontStyle=0;shape=mxgraph.aws4.group;grIcon=mxgraph.aws4.group_vpc;strokeColor=#879196;fillColor=none;verticalAlign=top;align=left;spacingLeft=30;fontColor=#879196;dashed=0;" parent="1" vertex="1">
          <mxGeometry x="-120" y="220" width="520" height="360" as="geometry" />
        </mxCell>
        <mxCell id="jX6GbzvN4i0k_gHsJKvV-7" value="1. App&lt;div&gt;2. AWS Infra&lt;/div&gt;" style="text;strokeColor=none;align=center;fillColor=none;html=1;verticalAlign=middle;whiteSpace=wrap;rounded=0;" parent="1" vertex="1">
          <mxGeometry x="100" y="33.83" width="80" height="30" as="geometry" />
        </mxCell>
        <mxCell id="jX6GbzvN4i0k_gHsJKvV-8" value="Subnet" style="sketch=0;outlineConnect=0;gradientColor=none;html=1;whiteSpace=wrap;fontSize=12;fontStyle=0;shape=mxgraph.aws4.group;grIcon=mxgraph.aws4.group_subnet;strokeColor=#879196;fillColor=none;verticalAlign=top;align=left;spacingLeft=30;fontColor=#879196;dashed=0;" parent="1" vertex="1">
          <mxGeometry x="-100" y="280" width="200" height="180" as="geometry" />
        </mxCell>
        <mxCell id="jX6GbzvN4i0k_gHsJKvV-9" value="Subnet" style="sketch=0;outlineConnect=0;gradientColor=none;html=1;whiteSpace=wrap;fontSize=12;fontStyle=0;shape=mxgraph.aws4.group;grIcon=mxgraph.aws4.group_subnet;strokeColor=#879196;fillColor=none;verticalAlign=top;align=left;spacingLeft=30;fontColor=#879196;dashed=0;" parent="1" vertex="1">
          <mxGeometry x="180" y="280" width="200" height="180" as="geometry" />
        </mxCell>
        <mxCell id="jX6GbzvN4i0k_gHsJKvV-10" value="" style="outlineConnect=0;dashed=0;verticalLabelPosition=bottom;verticalAlign=top;align=center;html=1;shape=mxgraph.aws3.application_load_balancer;fillColor=#F58534;gradientColor=none;" parent="1" vertex="1">
          <mxGeometry x="106" y="210" width="44.5" height="32" as="geometry" />
        </mxCell>
        <mxCell id="jX6GbzvN4i0k_gHsJKvV-11" value="" style="sketch=0;points=[[0,0,0],[0.25,0,0],[0.5,0,0],[0.75,0,0],[1,0,0],[0,1,0],[0.25,1,0],[0.5,1,0],[0.75,1,0],[1,1,0],[0,0.25,0],[0,0.5,0],[0,0.75,0],[1,0.25,0],[1,0.5,0],[1,0.75,0]];points=[[0,0,0],[0.25,0,0],[0.5,0,0],[0.75,0,0],[1,0,0],[0,1,0],[0.25,1,0],[0.5,1,0],[0.75,1,0],[1,1,0],[0,0.25,0],[0,0.5,0],[0,0.75,0],[1,0.25,0],[1,0.5,0],[1,0.75,0]];outlineConnect=0;fontColor=#232F3E;fillColor=#E7157B;strokeColor=#ffffff;dashed=0;verticalLabelPosition=bottom;verticalAlign=top;align=center;html=1;fontSize=12;fontStyle=0;aspect=fixed;shape=mxgraph.aws4.resourceIcon;resIcon=mxgraph.aws4.cloudwatch_2;" parent="1" vertex="1">
          <mxGeometry x="469" y="636" width="48" height="48" as="geometry" />
        </mxCell>
        <mxCell id="jX6GbzvN4i0k_gHsJKvV-12" value="" style="outlineConnect=0;dashed=0;verticalLabelPosition=bottom;verticalAlign=top;align=center;html=1;shape=mxgraph.aws3.iam;fillColor=#759C3E;gradientColor=none;" parent="1" vertex="1">
          <mxGeometry x="397" y="636" width="32" height="40.5" as="geometry" />
        </mxCell>
        <mxCell id="jX6GbzvN4i0k_gHsJKvV-13" value="" style="outlineConnect=0;dashed=0;verticalLabelPosition=bottom;verticalAlign=top;align=center;html=1;shape=mxgraph.aws3.ec2;fillColor=#F58534;gradientColor=none;" parent="1" vertex="1">
          <mxGeometry x="-90" y="380" width="46.5" height="63" as="geometry" />
        </mxCell>
        <mxCell id="jX6GbzvN4i0k_gHsJKvV-15" value="" style="outlineConnect=0;dashed=0;verticalLabelPosition=bottom;verticalAlign=top;align=center;html=1;shape=mxgraph.aws3.ec2;fillColor=#F58534;gradientColor=none;" parent="1" vertex="1">
          <mxGeometry x="190" y="390" width="46.5" height="63" as="geometry" />
        </mxCell>
        <mxCell id="jX6GbzvN4i0k_gHsJKvV-16" value="VPC" style="sketch=0;outlineConnect=0;gradientColor=none;html=1;whiteSpace=wrap;fontSize=12;fontStyle=0;shape=mxgraph.aws4.group;grIcon=mxgraph.aws4.group_vpc;strokeColor=#879196;fillColor=none;verticalAlign=top;align=left;spacingLeft=30;fontColor=#879196;dashed=0;" parent="1" vertex="1">
          <mxGeometry x="430" y="220" width="520" height="360" as="geometry" />
        </mxCell>
        <mxCell id="jX6GbzvN4i0k_gHsJKvV-18" value="Subnet" style="sketch=0;outlineConnect=0;gradientColor=none;html=1;whiteSpace=wrap;fontSize=12;fontStyle=0;shape=mxgraph.aws4.group;grIcon=mxgraph.aws4.group_subnet;strokeColor=#879196;fillColor=none;verticalAlign=top;align=left;spacingLeft=30;fontColor=#879196;dashed=0;" parent="1" vertex="1">
          <mxGeometry x="730" y="280" width="200" height="180" as="geometry" />
        </mxCell>
        <mxCell id="jX6GbzvN4i0k_gHsJKvV-19" value="" style="outlineConnect=0;dashed=0;verticalLabelPosition=bottom;verticalAlign=top;align=center;html=1;shape=mxgraph.aws3.application_load_balancer;fillColor=#F58534;gradientColor=none;" parent="1" vertex="1">
          <mxGeometry x="656" y="210" width="44.5" height="32" as="geometry" />
        </mxCell>
        <mxCell id="jX6GbzvN4i0k_gHsJKvV-22" value="" style="outlineConnect=0;dashed=0;verticalLabelPosition=bottom;verticalAlign=top;align=center;html=1;shape=mxgraph.aws3.ec2;fillColor=#F58534;gradientColor=none;" parent="1" vertex="1">
          <mxGeometry x="460" y="380" width="46.5" height="63" as="geometry" />
        </mxCell>
        <mxCell id="jX6GbzvN4i0k_gHsJKvV-23" value="" style="outlineConnect=0;dashed=0;verticalLabelPosition=bottom;verticalAlign=top;align=center;html=1;shape=mxgraph.aws3.ec2;fillColor=#F58534;gradientColor=none;" parent="1" vertex="1">
          <mxGeometry x="740" y="390" width="46.5" height="63" as="geometry" />
        </mxCell>
        <mxCell id="jX6GbzvN4i0k_gHsJKvV-24" value="Dev" style="text;strokeColor=none;align=center;fillColor=none;html=1;verticalAlign=middle;whiteSpace=wrap;rounded=0;" parent="1" vertex="1">
          <mxGeometry x="340" y="190" width="60" height="30" as="geometry" />
        </mxCell>
        <mxCell id="jX6GbzvN4i0k_gHsJKvV-25" value="Prod" style="text;strokeColor=none;align=center;fillColor=none;html=1;verticalAlign=middle;whiteSpace=wrap;rounded=0;" parent="1" vertex="1">
          <mxGeometry x="890" y="190" width="60" height="30" as="geometry" />
        </mxCell>
        <mxCell id="jX6GbzvN4i0k_gHsJKvV-27" value="Amazon S3" style="sketch=0;outlineConnect=0;fontColor=#232F3E;gradientColor=none;strokeColor=#ffffff;fillColor=#232F3E;dashed=0;verticalLabelPosition=middle;verticalAlign=bottom;align=center;html=1;whiteSpace=wrap;fontSize=10;fontStyle=1;spacing=3;shape=mxgraph.aws4.productIcon;prIcon=mxgraph.aws4.s3;" parent="1" vertex="1">
          <mxGeometry x="319" y="636" width="50" height="80" as="geometry" />
        </mxCell>
        <mxCell id="t_ox9nvXxmeWipuEfcrH-3" value="" style="shape=image;verticalLabelPosition=bottom;labelBackgroundColor=default;verticalAlign=top;aspect=fixed;imageAspect=0;image=data:image/png,iVBORw0KGgoAAAANSUhEUgAAAQIAAACUCAMAAABP2deIAAAA9lBMVEX///8AAAD/jgT/mgAaKzz/iQB8RQL/q3P/kAT/jAD/kgT/lgD/mAD/hwD/lAT/hQAAFS0UJzmdoKYAGjAAABwIHjIAACD/8ufxhwT/9/HX2Nrj5OUAABU2HgFRLQHhfwT/fgD+6dr+48//kSUxGwFrOwE8IQGnYQM4N0IAAAv91bfx8fL+p0RCJAG7agP+nUf+zqqUUwPLzc9PV2Gws7Z6foX/uHNbMwHGcQMnFQH/n1P/pWD+mDv+x57+v5MbDgD+tYBkZGwzP0xpcHiHi5H+sWOHTgIpKzxoaWlDQ0wcHjIRECX/rmtBS1cpNEP+wIP+nyf+rlQQ+5PAAAASmklEQVR4nO2d6VriwBKGAUGzQEJAlgDKJjIGZAkgyCaIypkZFLz/mzm9ZQPCkgWZ55zvx4wihPSb6uqqTnfF4/2fl+enT+Dn9VMI7m7uu90SUrd7e3/3/EPn4f0JBHfdy2az3Ov1stkkUjab7dVq5eZH6fHkJwN1WgR3pXKtl036KAaI0gR+4ygfRPFxegwnRHDfRK2nKJ+JAAoK2ETt8nTnBHUqBM/NbHJH6/UcfMlkr3Si04I6DYLLLLD7/c3XOHBM+WQ9wn0Ez49lX3C9/TRWAIj8uE6BY7OX966fHJTbCG5KNYpba30gFKKLw3q/P0Dq9+vDoo/mAQ2jKbDJj1uXTw/KXQQvHz2K0TcrEOJ99avJeCRJhUQiIQIl8ol8QWqMxleDYYg3YKDYbLPr6glCuYrgsufTAwjwfH3SAG33bJUISIwXRT6ko0Ax2fKNm6fodRXBbS2pA0Dzuf6okBe3N19VoiBNAAUdBCrbdO8codxD0EzqxsBQrjja23zFGhKFRY6n9Zbg6ujgFoL7rGYBdCjXLxzWfFXjQE4HgXPTENxB8PKhDYM0XZwceP0NkvpFzTdyWffGBlcQ3PaCGoD62MT97YdwVVRdI5P8eHHjVL2uIHi5VN0gHRpaBoAgLOiA6hHcihedR3BXTiqdIBQYH+sD1iQ2Bqpj5HruxAiOI7irKQMBnRvYBACVGBeVIZLLupJDOo3gOasFgiM7fUBTfsATqFTSjZHBYQQvaizADx0wAaKxMkBSlAsMnEXwqPnBiWMAgPLqyMCVHT1hKEcRdBVHGCg2nCQA3OJAiRGcZ+AkgpJCIFR3rhMQJSZFwoB1moGDCEpZQoBf5J0mAOxgpDJw2B84h+BWyQp4S/HwfkmKQ3DYJzqG4IXYAO0WAcAg53ODgWMIFBsIPLlFADKgSXzg5AyzUwhqZIIwNHANAFCBRMtU1sFY2SEEHyzxA+9uEgB2QMZGtnfnzIl7nULQTRIb6LtLwONpkHHBwfDAEQSPxBWG6u75AUUjYgeMYymTEwheaphAwMG0wFTiVYi4RKfuxzuB4BJHhTQtuU8AxIn1AJk+cODUoRxAcKt0g/EpCAAGJDxwqis4gKCJx8PQlfuOAIuESFTW/rlD2UfQxeMhPXQhMTDRhMd24ExXsI+AhIWB0ckIeEQ8MjoUJNpGUMJGEFicjoAaIVG9l5ebm8fb28cbG+u1bCMgcwT86boBkDjBI2OyVkPrtnpwvVa5edm1cgvWLgLiC/kTjQaKCkMSIJFlW3C9FuNLZnu1ZunYWy42EZAUmS6eajRQNFFusRiEF2wduV7LJoIy7ga5kwRFeiX6WxkgDr5k8pgMwh4CYgSB/qmNAORLZgQwBvbwdNoegib+Qv4EucGGkBnQmjYhXB42SthD0EMxQWDgzG2j41QY8nzAVxwO60DDYZEOhQK0caVS7yCnYAsBnjWnAw7fNDiUwXg8HkkFLEkajSeLesCwXouhygd0B1sIytgI+ieNCXYoUZBGi2JOt16Lyzb3hgp2EJAUMXDimGC3EnlpEdJWKlFUb9/6FDsISjgmOMVEyVESEyNeByG5xyPYQPBS5rAz/Okmb9NYB4GruYXgHvUD2vczznCvxkV1fGCzu4JmywheSI5ID39iRDxEiUlRiSCZ5A6HYAHBfbf08dEsl3FQQJ9lP8CSFkpvYJLmo+ORCJ5LzXIvm6Q4TtlgEDrTfoAkjkPEEKis6fTKUQhKoPk+zri5gj/XfoAlDXllYDBjcDgCtLVmY28JXTT/ern9NptOp7O3dtpeO1LoONNORK4c/dnCQGVgsm7xUAR3teTWnUWma4rk2ddciGEJ85ZMXk7/5xdQRP/Otzl4pWVocgu+SflI+/ecHEaYz2ey50glVAY+Owjua8adFej6I+W294NIPBMVBL+q2MMMX8B0C7we/Uxpb017BaAHPZVZGLwSb2McvzPaccBHvZ1jGXgWIcUnWkZw3zTurUF7iugi1HD7XEnHK+AzhpcOt+C6hRl0ouCXcFtPCzGa6qC0YuCFFsIkC2F0JGIG4Efv8b1qQeyA2Trrvh/BcynL6psfChX7i6vJuNGQJMlkquQTtiEc9r9+tj5fY2EEIfOGWwx/ieuueSuKEP3RXpFfwXvCHYgs/QX/Ggu/tlrTaetTCMf8D0d3BR2DbctT9iJ4LOt8AM3T/clI2ru5ogXa/9mJtOVUKiVH3vyolfjypX6B9kVn2qXMYBv/o/WNSAw2G1GaQRMJf0bkVBoI+NdW1Jta/7bDGVDbwoN9CLpZDUCAH473Nx8hiHfaKc17y9Aq/OEZ+gX+LHyp7Uh7ibfQDOMN2L7wKSt/jLV01z3Vfjt+VAA+UWHQ29z4twfBpbqq3BfIDQ5rPzzRtdFLhhdT+IsbCHFcq61qx6HPAA2dqVCmMcU3ID+RMVq+FQIeT57cj96yUms3grIaB9C5esH6HGllBrtCHFm/HEbOQGkJ+EsMdHLwj/Jm+QsQEZDnmMH3Rm1GFVgSTZt0hZ0IaoofpPmivUmB9rU2DvyFzZoqCOaCP95+i/qFV6VvILvAPQW6SsEZBJ4xHhq52nrWuAtBTxkKA0W7E0NyRkPQCasWAbrMH9DGdhtc+C8yUFbg34Xf2lszFoaALRIHuCuw62ZgjuC5pmyt4I/eX7Yh5AzC2OPJD+BnZWhrC8DzpVKgJ0TxoEmiAvxLG5LT7MOeJHw/mllflmCKQCMQmtjPhPQIPKhTkAZ3YsDzVcAoCgZK3DfkKHAFcUyocg2jiKjfbpKBRW7CBdfMwAzBS5OEAwHa+sKBCggLUmnYMjkuaAigb4y94p9B28MdTAKHg+jKC0qg9IaiBiHesp1qASXIwLhmBmYIlNHQ+s4CGaR3LaDprPMmt8M6K0Dm7UXXHPQAQYjg/oCdAXIFYSURSH+GcdQQ/pp2bFMYYwZc9xAEdyoBizdMU9NfsShO8KLh2NerX4cgDRFkUIOBHxRegdGn58qf037BrwuC5dc4yZAAhc/j80SDxBBZmXEIArJ6hrZKoJ2J6fJEP06VFAQVONbhC/0GowJoDyBsxu4hBQJCwasdKT3zRtWjxGItW5YwwmZgnDnYjqCMd5vSAYsEIl584UCCP5//+ROLGRDgKOHag0MmHAeiCAk2DwaEYUNCnGr9IUki7BHetse6RLJAp7YXwT0JCHiLnlC+Rmf7uyOnK5VKWo50PgU9glScZE0p4A0F9CqIhwQ/NHM4JK5HApX29PdXNIYh2GKAzcDoELciIKkRb3UJFWyGP9rSDeepmG5EAFkAsG04JQJDIgG1twLs5ho2DgQNQngzD0i336YxPHWQsZYlIOVxmGy4wbQNQZO4QquLqtsoyNfPDHlkAwJk7bADgP+FOX4JRABxkASmHmBKubWR6fYUuUb9ZMOxSuAZJKq8G8E9WT8UsBoTvkV1sQ+WrB8UMRHhl6cC0mIlPQIuMgqcAYSTMTP1dAdlnL8snhdUg8fTR887EZTtOQIc2QsxQztwjqAigD7AP0/BtFi5ptAZRFOeV8BGMA2I03A+ST/BdLQKKEo27GrZREA2FwTqVlcNoMxY+DIgQGNAVDWMCpoVacvAzyshAJwdyciVjHFKaf3QKG/6Y8MZJBY4Sm7uQkA8AW95ERmeHPDrEVTQtFFMG+vaMdhUaBtqCABSg3gE5hJxc5dPEFg9MygcIeo3tWwguCfrhxbWcyOcDeudVgSF+tqsCB4NPzsgGPhUXpqF/dEOyBWEL/MQEGWRigO1poaPRs7gxhxBCQdFdm6Zo6mx2FQ150r7AUd3vzQLnpGQTyMF+orw+mXsB23Z2CcQyrjB0R4rvG6V0tVGWUegrJuws5IQzXyBEA97tbTcyfhjMRTgaiYeIdGelg2kMjiQ1g0lFe/1NCKnCbhK6g0NCNc2XAFcs4kjg5IpAjIi+mxNE01RIBduRSLtyNvsC1h4C80CxtTpMnyvAGZL6ivpL3z7RedHK3/9sThIESNInRYKOh9shAVQV8gfUpemCLrICGzur0jFUWti8ZgQDQM3F/5M4zlRXfNQBKl3D9jV+Q2JUAaniPEwzDfD6BMPHVtGoCBgzRHgfkDX7X2N7CV2Dv8TvDAXhFHNta55HdQgfb+OoIscnumOM/Pq8014rAdLtxH0GqOOoCsWtY6ABAV2103I8TgMiUGcE7vGg1z6d9yrN+HUQxxIf2tIzsBX/hrjCeEhDBwEIikI0czc/lTqCA0JXPnFBMELnifg7S+rbrfmcz9IladKk9JvRu+eagMZ4sD0xivwxQg40BxCmP+yOWOChfe7MrVnEwTdIJ4pceCrPCBLlh2Z9gQHAmycOZaKQNv0vIYAbzJxthbLmQnPpVNabLSGAIeG1oPjf0D7EOBZ09y5rKt2Q/sQkH02P32abkra4wvwglL6p0/TTe1xh3c4QRj+9GmaChXMtXcIgqBsMijekhzJmfN1VGKisKxyqHB0gKuOrHurPdFh1/byerMKvzYlFpZBimODF0hBluIsM5ggBOyHawiodxuLUUxVWLIMS4Qx+Czf78dpEmeWJtlHsAisnhzfpZIvhnzsqvr9DlRlGYiAsRq6KCstzOYL7CMQxzRXdRqCCDei5fMJqHxBggwoq19RqK9PITvvDkc+ll29u7k+fcnZQEAiI9OJs2fWgUFRAv2V5b7dizAbzEVwZfXwo9CeGWS8xIy3d4qFPhe8YOlvxx1jAh9xzF2wViupkcoHlPl9BHwjKWfz3MUnlr0AEFaNQ9dqHqBEfgy6KOxg3+wFY/VWF3EF+v0ZawjwpFHOtjsbVTk4fjPBpeRIhxALjXeGC7JVeDQ2GGStDgi4BIhhHe72ZNl+aZbCE8dCCBxXHTdsUhALo+WKAYfjqvDaiPQFa9XdivhmkmGNxRqCD8ciZLGxQgP4BcsFvyc2AtrC8qkKjgFw0k/oKMAbclbn+PO4AIihnvIagns8cRayfMI6JZY+lsSzbLD6vTTbvLBDYuOpvwKfhhEhx5IDVIPBquUhkawyuTFH8EJurDszoiWClBLVg+7LFavLI7qwKD2tVmpAzNLKTU5xFeSeLJ6QSNajG5acrU+ik5uqE4vfsS5ppeY2yDNQAQZwSIi7DAIkxNKySgcoTvkkwPeuXpQlG7R8oyePS4MZ9+utI7gkd5MsfsemRtWgDgJqDkVTq/cJCHrzJOjFAr8VpNHye0XTlAEcCDZ11jNgWcveGhvB2vLTdQSP+May1fWGWySOFitOD4GA4BiK9nEXqyrW6oIFaBiOY43vZbnVk/5kpBVjtRt4CtgI1h47so7gzuGeACVK4yrDXmxTEAqlwMHgOiYypq75j6XP+k3vOt7BvLZXb2N9wQfpCc4meyCy4UwomCrIUuxkPbJK1AeWXTVearVRTXsDASnt7nh1jkS+UaUPpwA8J/e9Jb4WrU8dJupka87zHgTKvWUXynOIidEKdP+9GIIsQzPvYNxw9uuV7Qgf3n0IyDJ8twq35UGsy+G+b+z+QcUvMOx3w4XpBlI+mMqub9Pbsu6whkszhNyr0pJvLL/rw+FqhV0hdoer1apar7+P3Jh7hN9JiqJRG3v4tyAgZhBauFu4TETPz1sun6CWy5H58+Uc+bYr7AuZ2kYZ7W1rkHtk5eE516c4VmNlU87mjt1tCG5xeW/ri5DPTw1S92vbI3e2LsYvk4quw9PX8HNHSjV5qrelus/2XSk+UqrljKvVHCNJecbI1iLi2xHck8fAhU5a19YtqQTYrU8UMNme9aFszbGckpyPGurzhrbXNjJB8Nxz+dkvp5PyNAEfY1IQ1Wyr5qPbz785kRJjUv2Qoja2rO9BoJWv4K/Ou3jTTknqswipmlklVPOd6+qzsPj+v7oATRypDyLcEhXuR+AtKaWM7Jcv+BlJ6oPX9OtqjkGglP2HcaL1eYofkzjRKsFuJMiHIvDeqaVMAv+aRxAnOfV51RS186msu8u53GsFbfjcxOk5DNckJkY5XgOQ3f2MpT1FfW56Wm07nh+7mc46JTEvLXgVgI9K7nADhyDwPjc1Q6D50GDkzJ1it5QoNCZD3SPbKWZ/Rez9Nc5KWa3GGx3gi/3JWNr/+PiTK5EvNMaTBWi/rhw2l2zufzjzAZXuHpv6Sn+oztuwP7g6Lw0G9WExENKXA/cxTO2Q8vgH1Tu87bGGcoc0Kvd3Xtoojk+x2cMemHFg1cvH3kbJz/MWwx38gISDa5/e95LU1tKf5ycKDAO1zYp2thHAh6lnkz7mzDGgh6X0jnrw6HF1kGEV4CTDMWdoD/CpORxsfu3jcAOwgADo9rJcrmWBPZwTBMqXzILGwycnHfvIIIs10e9uu6XL81Kp2320+AAt556z/M/q/wi8/wXlnS8Z4AlMewAAAABJRU5ErkJggg==;" vertex="1" parent="1">
          <mxGeometry x="-250" y="129.34" width="70" height="40.16" as="geometry" />
        </mxCell>
        <mxCell id="t_ox9nvXxmeWipuEfcrH-5" value="" style="rounded=0;whiteSpace=wrap;html=1;dashed=1;dashPattern=8 8;fillColor=none;" vertex="1" parent="1">
          <mxGeometry x="-250" y="130" width="1330" height="590" as="geometry" />
        </mxCell>
        <mxCell id="t_ox9nvXxmeWipuEfcrH-6" value="" style="shape=image;verticalLabelPosition=bottom;labelBackgroundColor=default;verticalAlign=top;aspect=fixed;imageAspect=0;image=data:image/jpeg,/9j/4AAQSkZJRgABAQAAAQABAAD/2wCEAAkGBwgHBgkIBwgKCgkLDRYPDQwMDRsUFRAWIB0iIiAdHx8kKDQsJCYxJx8fLT0tMTU3Ojo6Iys/RD84QzQ5OjcBCgoKDQwNGg8PGjclHyU3Nzc3Nzc3Nzc3Nzc3Nzc3Nzc3Nzc3Nzc3Nzc3Nzc3Nzc3Nzc3Nzc3Nzc3Nzc3Nzc3N//AABEIAKgAtAMBIgACEQEDEQH/xAAcAAEBAQADAQEBAAAAAAAAAAAACAcDBQYBBAL/xABREAABAwMBBQMEDAoHBgcAAAABAgMEAAURBgcSITFBE1FhFHGBkQgiMjZCUnJ0obGysxUXIzdVdYKSk8EzNThiotLwFsLD0eHjJDRDVFaDlP/EABQBAQAAAAAAAAAAAAAAAAAAAAD/xAAUEQEAAAAAAAAAAAAAAAAAAAAA/9oADAMBAAIRAxEAPwDcaUpQKUpQKUpQKVwzJceDFdlTHm2I7SSpx1xW6lI7yawfX22yVKW5B0hmNH4pVOcT+Uc+Qk+5HiePH4JoNm1Dqmx6ba7S9XJiKSMpbUrLih4IGVH0Cs1vO3y1MKKLNaJMzBx2j7gZT5wBvE+nFYHJkPy5C5Ep5x99w5W46sqUo95J4muKg1iVt61I4s+S261so6BSHFqHp3wPorgRt11Yk5Me1K8Cwv8AkusupQbRbfZATkboulijO/GVGeU3jxAUFfXXu9PbYNJXlSWnpblteVw3ZqQhP74JSB5yKlylBcLbiHW0uNLStChlKknII7wa/qpB0jrq/wCkngbXMJjZyuI9lbKv2eh8Rg1Rez/aLaNaM9kz/wCEuSE5chuKySO9B+EPpHUcsh7OlKUClKUClKUClKUClKUClKUCuCbLjwIj0uY6lmOygrccWcBKRzNc9T9t91qqbP8A9l7c6fJYygqYpKv6R3ojxCeB+V8mg8xtP2iTNZTzHjKWxZmVfkGM4Lh+OvvPcOnrJ8JStg2BaRtl8F2uF5gszGmtxhlDyd4BRypRx3+54+JoMfpVK6l2J6aubal2ntbVJ4kFtRcbJ8UKP1EVj122Wavt108gRaXZgVxbkRfbNKHyuG75lYNB4ulaJC2L60kp3nYkWL4PSUk/4c1+pew3VyRkOWxfgmQr+aaDMaV7O5bLNaW5K1uWR15CfhRlodJ8yUkq+ivU6K2IXG5obmamfVboyhkRmwC+oeOeCOneeYIFBkdc0OVIhSmpUN5xiQ0oKbcbVhSSOoNVZC2XaMhxVx27Iw5vjCnHipxfLGQVE49GKle6Ql225y4Dpy5FfWyogYyUqIP1UFLbJtoresIRg3EobvUZGXAOAfT8dI6HvHpHA4Gh1FFoucuzXONcre6WpUZwONrHeOh7weRHUEiq80bqONqrTsS7xcJ7VOHWs57Jwe6T6Dy7xg9aDu6UpQKUpQKUpQKUpQKUpQdJrW/I0zpe43deCphr8kk/CcPBA828R6M1Hch52S+4++4px11ZWtajkqUTkk1vPskrqpq1Wi0oJxIeW+5g9EAAA+BKz+7WBUCqA9jXLaVY7xDB/KtykuqH91ScD7Bqf6rLZbo9nSGmWWltJFylJDsxzHHe6Iz3Jzjz5PWg9jSlKBSlKBSlKBUZaslNTtVXmXHUFMvz33W1JOQUqcUQfUas2pl236OZ01qFufbmg3b7lvLDaeTToPt0juByCB4kDgKDNq1r2PWpDA1C/YX3D5PcElbIPIPIGfRlIP7qayWv3WO5OWe8wbkznfiPoeABxndIOPTyoLVpX8tOJdbQ42d5CwFJI6g1/VApSlApSlApSlApSlBOHsi5CnNbRWd47rNvRw7iVrJP1eqsrrTfZCIKdfJJ+FBaI9ah/KsyoO+0HETO1rY4ywChc5nfB6pCgSPUKsWo40LJETWlifUQlKLgxvE9E74B+jNWPQKUpQKUpQKUpQKzP2QUNEjQPbq91FltuJPnykj/ABfRWmVmXshJYj6CSyecma22PQFK/wB36aCaaUpQWLoKQqVomwvLUVKVb2d4nqQgAn6K76vNbNUFGgbAD/7Fs+sZr0tApSlApSlApSlApSlBgPslLf2d5s9yAOHoy2CentFbw+8PqrGqqHbnYlXjQj77KCp+3OCUkDqgZC/QEkq/ZqXqD6lRSoKSSFA5BHSrE0PqFrVGl4F1aUkuONhL6R8B0cFj18vAipDNvmiGJhhyBFP/AK5aVuc8e6xivVbNdfTNE3JR3VSLXII8pjZ4/LR3KHqI4HoQFYUrptNapsuqInlFlntSMDK2s4cb+Uk8R9R6ZruaBSlKBSlfFEJBKiABxJPSg+1PPsiNRon3yJYoy95u3pK38Hh2q8YHoSB+8a9ptF2v22yR3YOnHm590UCntkEKZj+JPJSvAcO/lgzlIfdkvuPyHFOvOrK3HFnKlKJyST1JNBx19SkqUEpBKicADrXyvYbJ7Eq/67tjBSSxGc8qfPQIbIPHwKt1P7VBUtigi12S328cosZtn91IH8q/dSlApSlApSlApSlApSlB/DraHmltOoC21pKVJUMhQPMGpE2h6Xd0jqmVbVBXkxPaxVn4bR5ekcUnxBqvq8dtP0S1rSwllvcbuUbK4jyuWeqD/dVj0EA9MEMw2SbUnIi4mmtRdmuAoBiNJUOLWeCUL6FHTPTrw5ce23ZyzZsagsEYNwFq3ZcdtPtWFHkpI6JPLHIHGOeBk86HIt8x6HNZWzIZWUONrGCkjpVO7JtWRNXaTbgznEPXCK12Eth3Ci6jkFkH3QIwD458MhL8d96K8h+M64y8g5S42opUk+BHKtW2Sal1rqHU0a1DUMnyJpJekqdQh1fZpI4BSwTkkgZzwznpXv7rsS0jPlF9ny6CFHJaivJ3PQFpVj0cK9Jo3Qli0cl02dl3t3khDr7zpUtYHqA9AFB6alKUHmdopvjWlJkzTU4xZ0RBfwGkL7VCRlScKSeOMkY6gDrUt3vVeoL8Cm73eZJbOMtKcIb/AHB7X6KshxCXG1IUMpUCCPCoeoFKUoFUpsH0mqx6bVdpje7NugC0gjihke4HpzveYp7qzPY9s+c1Tc03O5NEWaIvKgof+ZWPgDw+MfR1yKaAAAAGAKD7SlKBSlKBSlKBSlKBSlKBSlKDwO03ZrD1kwZcQoi3ltOEPEe1dA5JXj6DzHjyqb58G9aTvPYykSbbcWDlKkLKFDpvJUk8Rz4g1Z1dTqPTdo1NB8jvUJuS2OKCeC2z3pUOI9HOgmdnaxrllsNovyyB1XHZWfWUE1qmwvVt91RIvZvs9UvsEsdkC2hATnfzwSB3CvM6p2EXGMpb2mJqJrXMRpJCHR4BXuVendr1GwnSF70yLw9fInknlPZJaQpaVKO7vZPAnA9sKDWKUpQKhyriIyCO+peh7G9ZyZ64zkJiO2hRBkvPp7M+IxlRz5vPigz6tJ2abKp+qHGrjd0OQ7NwUFHg5J8EDon+96s9NP0ZsbsNgW3LuhN2nIOQXU7rKD4I6/tE9+BWl0H57fBi22EzCgMIYjMJCG2kDASK/RSlApSlApSlApSlB/K1pbQpbiglCQSpSjgAd5rPL9tm0laXlMx3pFycScEw0AoB+UogHzjNZ7t210/cLq7pm2vqRAiKxKKFf07vxTj4KeWPjA9wrK4EKVcZbcSBGdkyHDhDTSCpSvMBQbz+P+0739STt3v7RFdtatt+k5roblpnQCfhvshSPWgk/RWRM7IdcOt7/wCBggYyAuU0CfRvfXXCnZfq1m5Qo1wssppmRIQ0p5rddS2FEAqUUEgAd54UFWMutvtIdZWlba0hSFJOQoHkRXA5coDUtEN2bGRKX7lhTqQtXmTnJrjuq34dkmLtrQVIZjLMdvHArCTuj14qL5Uh6XIdkynVvPuqK3HFqypSjzJNBb1K8nsqnT7js/s8q6qcVJU0pJW5neWlK1JSo555SBx68+teU1xtiVpXVE2yCxCUI3Z/ljL3N7eQlfLcOPdY59KDV6/h51DDLjzqt1ttJUpR6AcSa8Tsx2gq12m5FVsEHyItcpHab+/vf3RjG79Neqv39R3H5q79k0Hmvxr6H/Tzf/53f8test06Nc4EedBdDsaQ2HGnACN5JGQcHiKiSq/2b+8GwfMWvs0HezpbFvhSJsxwNx47anXVkE7qUjJPDwFeS/Gvof8ATzf8B3/LXa6/942of1bI+7VUd0Fuw5TE2IxLiuByO+2lxpY5KSoZB9RrmrpNEe8uwfq2N92mu7oFKUoOCdMj2+FImzHA3HjtqddWQTupSMk4HHkK8l+NfQ/6eb/gO/5a7XX/ALxtQ/q2R92qo7oLdhymJsRiXFcDkd9tLjSxyUlQyD6jXNXSaI95dg/Vsb7tNd3QKUpQRDKkOy5T0mQsreeWpxxZ+EonJPrqktg+mWLTpJu7uMjy+55WpahxS0CQlI8Dje8cjPIVNFWLoFITobTwTy/Bkc+ktpoO+pU67VtcantGvrrAtt5kR4rRa7NpGMJy0gnp3k15L8ZWs/8A5DL/AMP/ACoKzfdSww48vO62kqOOeAM1Pk7VmyefdVXKTpW6GQte+sJCUoWrvKA7jz8OPXNaJsuu9wvezZ+bdpTkqSTISXF4zgDgKl+grz/bTT0DSVvv0t02+2SUpTHQpo7w4HCd1GeiTy4cKmraXe4Wotb3K62xS1RHy32alp3Sd1tKTw86TWtS9I3HWWx7S8C1ORkPNbjyjIWUjdCVjoDxyoViep7DL0zfJNnuCmVSY+5vllRKfbJChgkDoodKD2eyDX1r0Qi6i6R5jxmFns/JkJONzfzneUPjCtss+roGs9HXa42xmSy00h5hSZCUhW8GwrPAnhhQqdNEaDu2tRMNodiI8k3O08ocUnO9vYxhJ+Ka3TQWkrjo3QF6t91cjredU++kx1lSd0tJT1A45SaCYqrbZ1cITehLChyZHStMFoFKnUgj2vnqSaUFd68uEFzRN/QiZHUpVukAJDqSSezV41IlKUFVt6rgaO2aaeudzakusqhxWQmOlKlbxaB6kDHA9a6u2bbdNXK5RIDEK7pdlPIZQpbLYSFKUACcOHhxroNqP5j9M/JhfcGsg0Z78LF+sY/3iaCyqzCbtx0xDmPxXIN4K2HFNqKWWsEg4OPynhWn1FmoffBc/nbv2zQU5c9Rw9VbKr3d7c2+3Hdt8pIS+kBYKUqByASOnfUp1Qeh/wCz9c/mc7/fqfKDeYm2qy2LTlpt0KDJuEmNBYacOQ02FpQARkgngQfg489c1p2/W1+SEXWySIbRIHasvh7HiQUp4ebNedsOwq4XK1sTZt7jxVPtpcQ22wXcAjIycp4+bNZ3q7Tc7Sl8ftNx3S42ApLiPcuIPJQ/1zBoLBt0+Jc4LM63vokRX07zbqDkKH+ulKlLS20TUWlrabfan2hHLpcCXUb26SBnHHgOHLxNKDyVVfseuzd22fWooUC5FR5K6kHO6UcBnzp3T6awna9pJ7TGrJDiGz+Dp61PxVgcBk5Uj9knl3YrrdDa4u2i5q3raUOx3sdvGeyUOY68OR58froKNv2zTSt/ur90ukBx2W/u9osSHEg4SEjgDjkBUtX+M1Dvtxix07rLEp1ttJOcJCiBx8wrYh7IQ7vHS4z3/hD/ALdYxdJhuFzlzSgNmS+t0oBzu7yicZ9NBRGxb81L3y5H1VNtUlsW/NS98uR9VTbQV1su/N7Yfmif51P2238515/+j7huqB2Xfm9sPzRP86wXbrFcj7Sbg64MJktMut+KQ2lH1oNB7P2M3uNR+eN/xa2G/f1Hcfmrv2TU47Hde2/RUq4t3Vh9cecG8OMAKLakb3MEjIO8fVy41uNu1ZbNX6Uu820dt2LLbrKi8jdJUG88OPL2woJIqs9ndqtz2hbE47b4i1qgtlSlMpJJ3e/FSZVf7N/eDYPmLX2aDg13ara1om/uNW+Ihabc+UqSwkEHs1cQcVI9WJr/AN42of1bI+7VUd0G8bUfzH6Z+TC+4NZBoz34WL9Yx/vE1s20mMt/YVYnEA7sdiC4vwBbCfrUKwu0zVWy6wp6EBaor6HggnG8UqBx9FBbFRZqH3wXP5279s1QEjbrpdEIOsxbi7IUP6Dskp3T4q3sY82fNU73GT5bcJMvc3O3eW5u5zu7xJxn00G96H/s/XP5nO+pdT5VB6H/ALP1z+ZzvqXU+UFpab97tr+ZtfYFYP7JBLY1dbVD+kNvAV5g4vH1mvV6Z22abZs8SLcY0+M/HYQ2rdbDiVFIxwIOenUCsm2matRrPU67kwytmM2ylhhDmN/cBJyrBIySo0Hk6V29o0xe71GVJtVtfkspWW1LbAwFAA49RHrpQV3frHbdQ21y33eKiRGXx3Vc0nopJ5g+IrGb9sCkJcUvT14aW2T7VqckpUkfLSDn90UpQeeVsP1gFYH4PI+MJBx9mu5s2wK5uOBV7u8WO3kZRFSp1RHdlQSAfXSlBsdg0vA09pw2S1doljcWN91W+pSlDio8h6sCsc/EBdf05C/hKpSg2jSVoXYNNW60uupeXEZDanEjAUfCui2kbPYWuIjSlPeSXGOCGZIRvApPNKhwyPqPpBUoMhe2FasQ5utyLW4nPBYfWPrRWqbN9Dz9L6OuNnuEmMuRMccWFMFSkICmwkcwCeWeVKUGe/iAuv6chfwl1tmlrWuyacttrddS6uJHQ0paRgKIGMivlKDk1Hbl3jT9ytjbiW1zIrjCVqGQkqSRk+usQ/EBdf05C/hLr7Sg2aNp+OrSEbTtzCZLCILcR7AwF7qAkkd3LI7qxS+bBryzKWbHcYkqKSSgSCW3EjuOAQfPkZ7hXylB+a37CdTPvpE2ZborOfbKDinFAeCQMH1iu/u2wNJbiJtF3AWlB8pckoPt1dCkJ5Dw4+c0pQe60/omRatm0rSrkxpx99iQ0H0pO6C5vYOOfDNeBs+wR1q4sru91ZfhDe7VthKkrPA4wTy44NfKUH4L3sFvDL6jZLnElMEnCZO804B0HAEHz8PNX5rZsI1G++kXGdAiMZ9stClOrHmTgA+sV8pQbvpfT8DTFlYtVrQUsNDJUo5U4o81KPUn/oOAr7SlB//Z;" vertex="1" parent="1">
          <mxGeometry x="10" y="20.830000000000002" width="60" height="56" as="geometry" />
        </mxCell>
      </root>
    </mxGraphModel>
  </diagram>
</mxfile>
